<svg width="175" height="203" viewBox="0 0 175 203" fill="none" xmlns="http://www.w3.org/2000/svg">
<path d="M171 120.5C171 164.512 136.646 200 94.5 200C52.354 200 18 164.512 18 120.5C18 76.4877 52.354 41 94.5 41C136.646 41 171 76.4877 171 120.5Z" fill="#F1F1F1" stroke="#111931" stroke-width="6"/>
<ellipse cx="59.5" cy="114.21" rx="15.5" ry="13.2102" fill="#111931"/>
<ellipse cx="131.5" cy="114.21" rx="15.5" ry="13.2102" fill="#111931"/>
<ellipse cx="60.1739" cy="112.5" rx="2.6087" ry="2.5" fill="#C4C4C4"/>
<ellipse cx="132.174" cy="112.5" rx="2.6087" ry="2.5" fill="#C4C4C4"/>
<path d="M54.937 90.0524C39.1294 90.0524 26.3145 102.867 26.3145 118.677C26.3145 134.484 39.1294 147.301 54.937 147.301C70.7465 147.301 83.5613 134.484 83.5613 118.677C83.5613 102.867 70.7465 90.0524 54.937 90.0524Z" fill="#33768F" fill-opacity="0.96"/>
<path d="M135.622 91C119.815 91 107 103.815 107 119.624C107 135.432 119.815 148.249 135.622 148.249C151.432 148.249 164.247 135.432 164.247 119.624C164.247 103.815 151.432 91 135.622 91Z" fill="#33768F" fill-opacity="0.96"/>
<path d="M155.472 136.73C155.472 136.73 149.903 145.719 134.977 146.766C134.977 146.766 119.087 147.808 110.892 132.761C102.703 117.726 110.892 104.494 113.534 102.641C116.171 100.794 120.391 95.7731 137.795 95.2414C155.209 94.7152 161.008 107.662 161.008 107.662C161.008 107.662 166.55 121.404 155.472 136.73ZM79.6318 132.761C71.4372 147.808 55.5467 146.766 55.5467 146.766C40.6209 145.719 35.0518 136.73 35.0518 136.73C23.974 121.404 29.5102 107.662 29.5102 107.662C29.5102 107.662 35.3149 94.7152 52.7238 95.2414C70.1326 95.7731 74.3533 100.794 76.9898 102.641C79.6318 104.494 87.821 117.726 79.6318 132.761ZM159.693 94.4521C159.693 94.4521 143.599 86.2629 126.454 89.9574C109.313 93.6573 105.882 102.378 105.882 102.378C105.882 102.378 99.472 101 95.2592 101C91.0485 101 84.6418 102.378 84.6418 102.378C84.6418 102.378 81.2104 93.6573 64.0647 89.9574C46.919 86.2629 30.8312 94.4521 30.8312 94.4521C30.8312 94.4521 25.2621 96.8932 20.5262 98.998L20 108.47C20 108.47 20.2796 110.304 21.6006 118.499C22.9161 126.688 31.6205 151.261 53.7817 150.998C75.9374 150.729 84.1101 138.84 86.3575 127.746C88.5993 116.646 87.8045 112.376 87.8045 112.376C87.8045 112.376 92.0821 111.5 95 111.5C97.9179 111.5 102.714 112.376 102.714 112.376C102.714 112.376 101.925 116.646 104.172 127.746C106.414 138.84 114.586 150.729 136.742 150.998C158.898 151.261 167.602 126.688 168.923 118.499C170.239 110.304 170.496 107.662 170.496 107.662V101.103C165.733 97.7337 159.693 94.4521 159.693 94.4521Z" fill="#111931"/>
<g clip-path="url(#clip0_201_2)">
<path d="M84.1429 86.115L41.2857 82.6864C39.8571 82.6864 36.6571 83.0293 35.2857 84.4007C33.9143 85.7721 31.1909 88.2861 29.7143 89.5436" stroke="#111931" stroke-width="4" stroke-linecap="round"/>
<path d="M29.7143 89.5436C34.3284 87.5861 52.0158 84.8622 84.5714 89.2477H85.8571C87.1429 89.115 83.7143 84.8293 83.7143 84.8293" stroke="#111931" stroke-width="4" stroke-linecap="round"/>
<path d="M34.8571 86.5436L51.5714 84.4007" stroke="#111931" stroke-width="4" stroke-linecap="round"/>
<path d="M36.5714 83.5435C38.2857 82.6864 38.2857 79.2579 83.7143 84.8294" stroke="#111931" stroke-width="4" stroke-linecap="round"/>
</g>
<g clip-path="url(#clip1_201_2)">
<path d="M106.857 86.115L149.714 82.6864C151.143 82.6864 154.343 83.0293 155.714 84.4007C157.086 85.7721 159.809 88.2861 161.286 89.5436" stroke="#111931" stroke-width="4" stroke-linecap="round"/>
<path d="M161.286 89.5436C156.672 87.5861 138.984 84.8622 106.429 89.2477H105.143C103.857 89.115 107.286 84.8293 107.286 84.8293" stroke="#111931" stroke-width="4" stroke-linecap="round"/>
<path d="M156.143 86.5436L139.429 84.4007" stroke="#111931" stroke-width="4" stroke-linecap="round"/>
<path d="M154.429 83.5435C152.714 82.6864 152.714 79.2579 107.286 84.8294" stroke="#111931" stroke-width="4" stroke-linecap="round"/>
</g>
<path d="M139.959 160.646C139.508 156.419 135.89 154.796 132.241 153.706C131.917 153.609 131.678 154.033 131.913 154.265C133.951 156.253 136.572 160.048 132.822 161.848C130.052 163.177 127.281 161.389 125.212 159.625C121.571 156.515 118.253 153.031 114.053 150.642C110.724 148.754 106.882 147.652 103.036 148.099C100.019 148.454 96.3352 149.987 94.9981 152.939C93.6648 149.987 89.981 148.454 86.9639 148.099C83.1182 147.652 79.2764 148.754 75.9472 150.642C71.7432 153.031 68.4293 156.515 64.7879 159.625C62.7148 161.389 59.9481 163.177 57.1775 161.848C53.4244 160.048 56.0447 156.253 58.0831 154.265C58.322 154.033 58.0792 153.609 57.7594 153.706C54.1103 154.796 50.492 156.419 50.0411 160.646C49.4786 165.902 54.7923 169.404 59.3971 169.998C61.9865 170.329 64.6106 170.029 67.1885 169.616C75.2497 168.321 83.2184 166.056 90.9251 163.378C92.1851 162.938 93.7188 162.607 94.8748 161.933C94.921 161.906 94.9557 161.875 94.9981 161.848C95.0443 161.875 95.0751 161.902 95.1252 161.933C96.2812 162.607 97.811 162.938 99.0749 163.378C106.782 166.056 114.75 168.321 122.811 169.616C125.389 170.029 128.013 170.329 130.603 169.998C135.208 169.404 140.521 165.902 139.959 160.646Z" fill="#111931"/>
<path d="M70.1159 4.243C56.6043 4.243 49.9947 8.22727 46.8201 23.5006L41 49L141 46.9091C134.288 26.7321 135.344 -5.09395 98.6532 5.42793C90.6457 0.773269 83.8436 4.243 70.1159 4.243Z" fill="#837670"/>
<path d="M120.202 16.4979C118.649 18.054 113.33 18.9488 104.477 10.0786C102.406 8.003 100.497 6.49998 98.6532 5.42793M98.6532 5.42793C90.6457 0.77327 83.8436 4.243 70.1159 4.243C56.6043 4.243 49.9947 8.22727 46.8201 23.5006L41 49L141 46.9091C134.288 26.7321 135.344 -5.09395 98.6532 5.42793Z" stroke="#111931" stroke-width="5" stroke-linejoin="round"/>
<path d="M3.67827 71.0651C-0.321726 79.8651 14.3449 85.7318 22.1783 87.5651C33.9087 73.6099 62.1827 56.1059 95 54.5C116.27 53.4592 139.281 59.9665 161.5 75.5C181 63.4999 173.178 50.0243 141.678 43.0651C55.6782 24.0652 8.67827 60.0651 3.67827 71.0651Z" fill="#837670"/>
<path d="M22.1783 87.5651L21.6086 89.9993L23.1038 90.3493L24.092 89.1737L22.1783 87.5651ZM3.67827 71.0651L5.95419 72.0996L3.67827 71.0651ZM141.678 43.0651L142.218 40.6239L141.678 43.0651ZM161.5 75.5L160.068 77.5489L161.413 78.4893L162.81 77.6291L161.5 75.5ZM95 54.5L95.1222 56.997L95 54.5ZM22.748 85.1309C18.9872 84.2507 13.6861 82.4158 9.88856 79.8549C7.9854 78.5714 6.66582 77.242 6.00262 75.9537C5.40244 74.7878 5.28418 73.5736 5.95419 72.0996L1.40236 70.0306C0.0723712 72.9566 0.287442 75.7757 1.55705 78.2421C2.76364 80.5861 4.85032 82.4879 7.09299 84.0003C11.5872 87.0311 17.5361 89.0462 21.6086 89.9993L22.748 85.1309ZM5.95419 72.0996C6.92581 69.962 10.3569 65.9649 16.7127 61.4096C22.9601 56.9321 31.7742 52.103 43.1206 48.1777C65.7928 40.3344 98.5724 36.102 141.139 45.5062L142.218 40.6239C98.7841 31.0282 65.0637 35.2959 41.4859 43.4525C29.7073 47.5273 20.459 52.5731 13.8 57.3456C7.24961 62.0403 2.93074 66.6681 1.40236 70.0306L5.95419 72.0996ZM141.139 45.5062C148.886 47.2177 155.07 49.308 159.689 51.6174C164.347 53.9473 167.193 56.3903 168.572 58.6818C169.858 60.8173 169.959 62.9393 168.819 65.2378C167.599 67.6983 164.879 70.485 160.19 73.3709L162.81 77.6291C167.871 74.5149 171.485 71.1172 173.299 67.4585C175.193 63.6378 175.025 59.7059 172.856 56.1026C170.78 52.6553 166.982 49.6746 161.925 47.1454C156.827 44.5959 150.221 42.3921 142.218 40.6239L141.139 45.5062ZM24.092 89.1737C35.383 75.7413 63.0122 58.5683 95.1222 56.997L94.8778 52.003C61.3532 53.6435 32.4345 71.4785 20.2646 85.9565L24.092 89.1737ZM95.1222 56.997C115.778 55.9862 138.251 62.2967 160.068 77.5489L162.932 73.4511C140.311 57.6364 116.761 50.9321 94.8778 52.003L95.1222 56.997Z" fill="#111931"/>
<line x1="38.6464" y1="120.646" x2="55.6464" y2="103.646" stroke="#ECECEC"/>
<line x1="45.6464" y1="126.646" x2="62.6464" y2="109.646" stroke="#ECECEC"/>
<line x1="37.9393" y1="126.939" x2="61.9393" y2="102.939" stroke="#ECECEC" stroke-width="3"/>
<line x1="115.646" y1="118.646" x2="132.646" y2="101.646" stroke="#ECECEC"/>
<line x1="122.646" y1="124.646" x2="139.646" y2="107.646" stroke="#ECECEC"/>
<line x1="114.939" y1="124.939" x2="138.939" y2="100.939" stroke="#ECECEC" stroke-width="3"/>
<defs>
<clipPath id="clip0_201_2">
<rect width="60" height="12" fill="white" transform="translate(28 80)"/>
</clipPath>
<clipPath id="clip1_201_2">
<rect width="60" height="12" fill="white" transform="matrix(-1 0 0 1 163 80)"/>
</clipPath>
</defs>
</svg>
