<svg width="205" height="134" viewBox="0 0 205 134" fill="none" xmlns="http://www.w3.org/2000/svg">
<path d="M80.6654 7.78131C92.1683 1.09616 114.188 -2.24648 131.442 11.681C134.896 14.4686 143.482 34.8701 150.196 53.2528C171.223 61.865 206.869 83.893 201.446 97.2633C195.571 111.748 172.36 124.561 98.4127 131.246C24.4656 137.931 -3.14139 98.3775 2.77438 82.7788C7.507 70.2999 35.3164 57.8952 48.6295 53.2528C48.9282 40.9985 49.3923 29.1598 50.1006 25.398C51.7438 16.6702 64.89 3.54273 74.2566 9.24224C74.9774 9.68084 76.4284 10.4788 76.4284 10.4788L80.6654 7.78131Z" fill="#837670"/>
<path d="M113.202 13.1419C106.937 15.6199 91.2073 18.334 76.4284 10.4788M48.6295 53.2528C48.9283 40.9985 49.3923 29.1598 50.1006 25.398C51.7438 16.6702 64.89 3.54273 74.2566 9.24224C74.9774 9.68084 76.4284 10.4788 76.4284 10.4788M48.6295 53.2528C48.235 69.4301 48.1286 86.3317 48.1286 86.3317C61.9321 98.3775 110.441 110.287 158.556 79.0895C157.244 73.5599 154.024 63.7345 150.196 53.2528M48.6295 53.2528C35.3164 57.8952 7.507 70.2999 2.77438 82.7788C-3.14139 98.3775 24.4656 137.931 98.4127 131.246C172.36 124.561 195.571 111.748 201.446 97.2633C206.869 83.893 171.223 61.865 150.196 53.2528M150.196 53.2528C143.482 34.8701 134.896 14.4686 131.442 11.681C114.188 -2.24648 92.1683 1.09616 80.6654 7.78131L76.4284 10.4788" stroke="black" stroke-width="4" stroke-linecap="round" stroke-linejoin="round"/>
<path d="M51.7911 69.4085C53.763 69.9656 90.7366 92.2495 149.401 62.7234" stroke="black" stroke-opacity="0.22" stroke-width="3"/>
</svg>
